<svg xmlns="http://www.w3.org/2000/svg" width="125.832" height="54.263" viewBox="0 0 125.832 54.263"><defs><style>.a{fill:#fff;}</style></defs><g transform="translate(-95.597 -137.445)"><g transform="translate(95.802 180.023)"><path class="a" d="M988.229,532.6a5.815,5.815,0,1,0,5.986,5.717A5.855,5.855,0,0,0,988.229,532.6Zm-.022,9.3a3.489,3.489,0,1,1,.011-6.979,3.489,3.489,0,0,1-.011,6.979Z" transform="translate(-886.775 -532.556)"/><path class="a" d="M1185.852,537.638a20.949,20.949,0,0,0-2.286-.744,5.94,5.94,0,0,1-1.769-.615.9.9,0,0,1,.065-1.661,2.461,2.461,0,0,1,1.327-.226,13.234,13.234,0,0,1,2.664.528c1,.237.9-.766,1.23-1.23.259-.356.065-.647-.356-.8a8.813,8.813,0,0,0-5.544-.388,3.161,3.161,0,0,0-2.405,3.074,2.918,2.918,0,0,0,2.19,2.977c.982.367,2.006.582,3.009.9.626.194,1.381.388,1.262,1.262-.119.9-.906.96-1.607,1.014a6.723,6.723,0,0,1-3.376-.561c-.96-.453-1,.356-1.283.863-.356.615-.119.938.485,1.176a8.164,8.164,0,0,0,3.592.669,5.377,5.377,0,0,0,2.837-.485,3.2,3.2,0,0,0,1.888-3.02A2.852,2.852,0,0,0,1185.852,537.638Z" transform="translate(-1062.145 -532.212)"/><path class="a" d="M817.267,541.748c-.28-.345-.248-.529.108-.841a4.586,4.586,0,0,0,1.413-5.274c-.593-1.618-1.963-2.416-4.228-2.438-1.294-.022-2.589.043-3.872-.022-.906-.043-1.143.334-1.111,1.165.043,1.5.011,3,.011,4.509h0c0,1.607-.011,3.214,0,4.821,0,.4-.076.841.529.971,1.445.323,1.931-.032,1.931-1.467a6.043,6.043,0,0,0,0-.626c-.043-.593.248-.712.8-.809a2.352,2.352,0,0,1,2.675,1.5,2.647,2.647,0,0,0,3.042,1.424c.615-.065.766-.248.377-.766C818.389,543.171,817.839,542.449,817.267,541.748Zm-2.891-2.1c-2.308.194-2.308.194-2.308-2.19,0-2.287,0-2.287,2.3-2.1,1.445.119,2.146.831,2.125,2.179A2.051,2.051,0,0,1,814.376,539.644Z" transform="translate(-732.768 -533.064)"/><path class="a" d="M443.314,538.2c-1.111.065-2.233.032-3.354.011-.572-.011-.777.227-.809.809-.054.884.14,1.435,1.187,1.284a5.45,5.45,0,0,1,.938,0c.28.011.582.011.647.378a.7.7,0,0,1-.378.777,3.777,3.777,0,0,1-5.069-1.262,3.615,3.615,0,0,1,4.951-4.962c1.111.626,1.607.2,2.211-.572.3-.388.291-.658-.119-.949a5.972,5.972,0,0,0-2.578-1.1c-2.524-.4-4.746.162-6.331,2.3a5.45,5.45,0,0,0-.539,5.932c1.327,2.772,4.649,3.98,7.906,2.923,2.211-.712,2.438-1.035,2.438-3.3a8.225,8.225,0,0,1,.011-1.154C444.554,538.426,444.166,538.156,443.314,538.2Z" transform="translate(-397.203 -532.461)"/><path class="a" d="M104.328,537.5c-.68-.259-1.4-.421-2.1-.636-.529-.162-1.068-.313-1.586-.529a.894.894,0,0,1-.626-.982,1.046,1.046,0,0,1,.8-.874,3.353,3.353,0,0,1,1.348-.108,12.518,12.518,0,0,1,2.351.507c1.089.291.992-.755,1.316-1.262.356-.561-.237-.69-.6-.82a8.637,8.637,0,0,0-5.242-.334,3.187,3.187,0,0,0-2.448,3.031,2.866,2.866,0,0,0,2.211,3.042c.982.356,2.017.572,3.009.885.593.194,1.305.378,1.208,1.208-.1.9-.841,1.025-1.564,1.068a6.576,6.576,0,0,1-3.376-.539c-1.025-.507-1.046.356-1.359.884-.4.68,0,.917.55,1.154a7.736,7.736,0,0,0,3.419.658,6.484,6.484,0,0,0,2.621-.334,3.166,3.166,0,0,0,2.19-3.117A2.864,2.864,0,0,0,104.328,537.5Z" transform="translate(-97.501 -532.191)"/><path class="a" d="M276.952,542.59c-1.532.054-3.074-.022-4.606.022-1.025.032-.852-.647-.874-1.262-.022-.647,0-1.176.906-1.133,1.079.054,2.168-.022,3.247.022.831.032.863-.442.874-1.068.011-.647-.086-1.089-.9-1.046s-1.607.011-2.405.011c-1.791,0-1.769,0-1.737-1.78.011-.669.227-.938.917-.917,1.359.032,2.729-.032,4.088.022.863.032,1.068-.334,1.068-1.111,0-.734-.194-1.079-1-1.057-2.168.043-4.336.032-6.493,0-.658-.011-.938.194-.938.9q.032,4.821,0,9.643c0,.669.227.949.906.928,1.154-.032,2.308-.011,3.462-.011s2.308-.032,3.462.011c.766.032.96-.334.938-1.025C277.837,543.107,277.869,542.557,276.952,542.59Z" transform="translate(-250.591 -533.172)"/><path class="a" d="M624.595,536.851c0,.982-.022,1.952,0,2.934a4.482,4.482,0,0,0,4.681,4.595c3.117.1,5.188-1.532,5.339-4.358.119-2.125.032-4.261.032-6.385,0-.27.032-.626-.291-.723a2.879,2.879,0,0,0-1.758-.011c-.561.194-.313.787-.324,1.208a56.77,56.77,0,0,1-.119,5.749,2.212,2.212,0,0,1-1.909,2.19c-1.866.4-3.182-.626-3.257-2.653-.065-1.888-.054-3.775-.011-5.652.022-.906-.485-.938-1.133-.917-.615.022-1.305-.129-1.262.884C624.638,534.758,624.595,535.8,624.595,536.851Z" transform="translate(-567.73 -532.708)"/></g><g transform="translate(95.596 137.445)"><g transform="translate(0 0)"><path class="a" d="M960.514,171.816c7.324,4.584,17.916,2.707,23.978-2.028a1.206,1.206,0,0,0,.431-1c.259-4.261.054-8.521.173-12.782.022-.8-.216-1.111-1.068-1.089-2.308.054-4.616.022-6.914.022s-4.616.022-6.914-.011c-.723-.011-1,.237-.982.96.054,1.888-.021,3.764.129,5.652.065.841.378,1.068,1.154,1.046,2.093-.032,4.2-.022,6.288,0,.41,0,.982-.194,1.1.475a1.2,1.2,0,0,1-.626,1.4,12.756,12.756,0,0,1-3,1.24c-4.153,1.154-8.079.831-11.39-2.168-2.643-2.395-4.271-5.436-3.538-9.05a10.084,10.084,0,0,1,7.216-7.885,13.349,13.349,0,0,1,12.059,2.006c.658.453,1.025.475,1.542-.151,1.057-1.262,2.19-2.448,3.279-3.678a2.2,2.2,0,0,0-.237-2.966,16.223,16.223,0,0,0-3.721-2.33c-6.9-3.225-16.125-2.945-22.414,3.247-4.012,3.959-5.533,8.769-5.177,14.378A17.7,17.7,0,0,0,960.514,171.816Z" transform="translate(-859.48 -137.445)"/><path class="a" d="M384.621,159.357c.108,6.666-.065,12.285.1,17.916.022.96.313,1.251,1.273,1.24,5.382-.043,10.754-.022,16.136-.011,2.028,0,4.056-.032,6.073.011.831.022,1.035-.28,1.089-1.079.119-1.812.108-3.624.119-5.436.011-1.456,0-1.467-1.413-1.467H393.218c-1.391,0-1.391,0-1.391-1.4q0-12.733.011-25.455c0-1.37,0-1.37-1.4-1.381-1.532,0-3.074.054-4.606-.022-.982-.043-1.23.324-1.23,1.262C384.643,149.164,384.621,154.784,384.621,159.357Z" transform="translate(-353.428 -141.748)"/><path class="a" d="M95.629,159.887h.022v15.295c0,.766.1,1.532.086,2.3-.011.744.259,1.057,1.046,1.035,1.747-.054,3.495-.043,5.231-.011.7.011.949-.2,1.014-.938.194-2.125.086-4.25.119-6.375.022-1.693-.28-1.629,1.618-1.661,3.031-.043,6.073.173,9.071-.475,5.35-1.165,8.478-4.271,9.416-9.406a32.494,32.494,0,0,0,.367-4.692c.227-7.194-4-11.973-11.218-12.5-5.188-.378-10.4-.043-15.6-.173-1-.022-1.219.334-1.208,1.262C95.64,148.993,95.629,154.44,95.629,159.887Zm8.327-9.923c2.157.043,4.336-.065,6.482.108a5.756,5.756,0,0,1,5.35,3.872,5.534,5.534,0,0,1-3.225,6.785,9.1,9.1,0,0,1-3.657.787c-1.607.022-3.214-.011-4.811.043-.744.022-.971-.237-.96-.96.043-1.607.011-3.2.011-4.811h-.011c0-1.639.011-3.279-.011-4.918C103.136,150.287,103.3,149.953,103.956,149.964Z" transform="translate(-95.596 -141.75)"/><path class="a" d="M633.607,148.643h.119c0,1.812.011,3.624-.011,5.447-.011.658.248.938.928.928,1.672-.022,3.354-.022,5.026.011.723.011.938-.291,1-.982.334-3.592.065-7.184.172-10.775.022-.636-.259-.863-.874-.863-1.812.011-3.635.022-5.447-.011-.766-.011-.938.324-.928,1.014C633.628,145.159,633.607,146.9,633.607,148.643Z" transform="translate(-575.566 -141.863)"/><path class="a" d="M639.589,305.639c4.261,2.7,8.953,3.009,13.731,1.963,5.5-1.208,9.082-4.563,10.4-10.117.733-3.117.507-6.321.561-9.492.011-.82-.572-.723-1.089-.723H634.606c-.572,0-1.133-.065-1.111.809.065,2.546-.043,5.091.259,7.637C634.239,299.89,635.976,303.353,639.589,305.639Z" transform="translate(-575.476 -271.107)"/><path class="a" d="M851.859,154.074c.054.841.367,1.068,1.143,1.046,1.607-.043,3.214-.032,4.821,0,.7.011,1.025-.2,1-.949-.032-1.78-.011-3.559-.011-5.339h.119c0-1.812-.022-3.635.011-5.447.011-.626-.216-.884-.852-.884-1.855.011-3.7.011-5.555,0-.636,0-.852.28-.841.9C851.8,146.944,851.61,150.514,851.859,154.074Z" transform="translate(-770.142 -141.955)"/></g></g></g></svg>