<svg xmlns="http://www.w3.org/2000/svg" width="110.633" height="47.709" viewBox="0 0 110.633 47.709"><defs><style>.a{fill:#d395f8;}.b{fill:#632892;}</style></defs><g transform="translate(-971 -30.646)"><g transform="translate(971.18 68.081)"><g transform="translate(0 0)"><path class="a" d="M987.5,532.6a5.113,5.113,0,1,0,5.263,5.026A5.148,5.148,0,0,0,987.5,532.6Zm-.019,8.175a3.068,3.068,0,1,1,.009-6.136,3.068,3.068,0,0,1-.009,6.136Z" transform="translate(-898.301 -532.561)"/><path class="a" d="M1185,536.983a18.413,18.413,0,0,0-2.01-.654,5.221,5.221,0,0,1-1.555-.541.794.794,0,0,1,.057-1.46,2.165,2.165,0,0,1,1.166-.2,11.641,11.641,0,0,1,2.342.465c.882.209.787-.673,1.081-1.081.228-.313.057-.569-.313-.7a7.749,7.749,0,0,0-4.875-.341,2.779,2.779,0,0,0-2.115,2.7,2.566,2.566,0,0,0,1.925,2.617c.863.322,1.764.512,2.646.787.55.171,1.214.341,1.109,1.11-.1.787-.8.844-1.413.891a5.91,5.91,0,0,1-2.968-.493c-.844-.4-.882.313-1.129.759-.313.541-.1.825.427,1.034a7.18,7.18,0,0,0,3.158.588,4.727,4.727,0,0,0,2.494-.427,2.811,2.811,0,0,0,1.66-2.655A2.508,2.508,0,0,0,1185,536.983Z" transform="translate(-1076.233 -532.212)"/><path class="a" d="M816.338,540.711c-.247-.3-.218-.465.095-.74a4.032,4.032,0,0,0,1.242-4.637c-.522-1.423-1.726-2.124-3.717-2.143-1.138-.019-2.276.038-3.4-.019-.8-.038-1.005.294-.977,1.024.038,1.318.009,2.636.009,3.964h0c0,1.413-.009,2.826,0,4.239,0,.351-.066.74.465.853,1.271.285,1.7-.028,1.7-1.29a5.334,5.334,0,0,0,0-.55c-.038-.522.218-.626.7-.711a2.068,2.068,0,0,1,2.352,1.318,2.327,2.327,0,0,0,2.674,1.252c.541-.057.673-.218.332-.673C817.324,541.963,816.841,541.328,816.338,540.711Zm-2.542-1.849c-2.029.171-2.029.171-2.029-1.925,0-2.01,0-2.01,2.02-1.849,1.271.1,1.887.73,1.868,1.916A1.8,1.8,0,0,1,813.8,538.862Z" transform="translate(-742.045 -533.077)"/><path class="a" d="M442.121,537.51c-.977.057-1.963.028-2.949.01-.5-.01-.683.2-.711.711-.047.778.123,1.261,1.043,1.129a4.787,4.787,0,0,1,.825,0c.247.009.512.009.569.332a.612.612,0,0,1-.332.683,3.321,3.321,0,0,1-4.457-1.11,3.178,3.178,0,0,1,4.353-4.362c.977.55,1.413.18,1.944-.5.266-.341.256-.579-.1-.835a5.25,5.25,0,0,0-2.267-.967,5.365,5.365,0,0,0-5.567,2.02,4.792,4.792,0,0,0-.474,5.216,5.583,5.583,0,0,0,6.951,2.57c1.944-.626,2.143-.911,2.143-2.9a7.233,7.233,0,0,1,.01-1.015C443.211,537.71,442.87,537.472,442.121,537.51Z" transform="translate(-401.58 -532.464)"/><path class="a" d="M103.5,536.858c-.6-.228-1.233-.37-1.849-.56-.465-.142-.939-.275-1.394-.465a.786.786,0,0,1-.55-.863.92.92,0,0,1,.7-.768,2.95,2.95,0,0,1,1.185-.095,11.007,11.007,0,0,1,2.067.446c.958.256.872-.664,1.157-1.11.313-.493-.209-.607-.531-.721a7.593,7.593,0,0,0-4.609-.294,2.8,2.8,0,0,0-2.153,2.665,2.52,2.52,0,0,0,1.944,2.674c.863.313,1.773.5,2.646.778.522.171,1.147.332,1.062,1.062-.085.787-.74.9-1.375.939a5.784,5.784,0,0,1-2.968-.474c-.9-.446-.92.313-1.195.778-.351.6,0,.806.484,1.015a6.8,6.8,0,0,0,3.006.578,5.7,5.7,0,0,0,2.3-.294,2.784,2.784,0,0,0,1.925-2.741A2.518,2.518,0,0,0,103.5,536.858Z" transform="translate(-97.501 -532.191)"/><path class="a" d="M276,541.467c-1.347.047-2.7-.019-4.049.019-.9.029-.749-.569-.768-1.109-.019-.569,0-1.034.8-1,.948.047,1.906-.019,2.854.019.73.028.759-.389.768-.939.009-.569-.076-.958-.787-.92s-1.413.009-2.115.009c-1.574,0-1.555,0-1.527-1.565.009-.588.2-.825.806-.806,1.195.028,2.4-.029,3.594.019.759.028.939-.294.939-.977,0-.645-.171-.948-.882-.929-1.906.038-3.812.028-5.709,0-.579-.009-.825.171-.825.787q.028,4.239,0,8.478c0,.588.2.835.8.815,1.015-.028,2.029-.009,3.044-.009s2.029-.028,3.044.009c.673.029.844-.294.825-.9C276.781,541.922,276.81,541.438,276,541.467Z" transform="translate(-252.827 -533.187)"/><path class="a" d="M624.593,536.358c0,.863-.019,1.716,0,2.58a3.941,3.941,0,0,0,4.116,4.04c2.741.085,4.561-1.347,4.694-3.831.1-1.868.029-3.746.029-5.614,0-.237.029-.55-.256-.635a2.532,2.532,0,0,0-1.546-.01c-.493.171-.275.692-.284,1.062a49.928,49.928,0,0,1-.1,5.055,1.944,1.944,0,0,1-1.679,1.925A2.213,2.213,0,0,1,626.7,538.6c-.057-1.66-.047-3.319-.009-4.969.019-.8-.427-.825-1-.806-.54.019-1.147-.114-1.109.778C624.631,534.518,624.593,535.438,624.593,536.358Z" transform="translate(-574.597 -532.716)"/></g></g><g transform="translate(971 30.645)"><g transform="translate(0 0)"><path class="b" d="M959.466,167.664c6.439,4.03,15.752,2.38,21.081-1.783a1.06,1.06,0,0,0,.379-.882c.228-3.746.047-7.492.152-11.238.019-.7-.19-.977-.939-.958-2.029.047-4.059.019-6.079.019s-4.059.019-6.079-.009c-.635-.009-.882.209-.863.844.047,1.66-.019,3.31.114,4.969.057.74.332.939,1.015.92,1.84-.028,3.689-.019,5.529,0,.36,0,.863-.171.967.417a1.055,1.055,0,0,1-.55,1.233,11.212,11.212,0,0,1-2.636,1.091c-3.651,1.015-7.1.73-10.014-1.906-2.323-2.105-3.755-4.78-3.11-7.957a8.866,8.866,0,0,1,6.344-6.932,11.737,11.737,0,0,1,10.6,1.764c.578.4.9.417,1.356-.133.929-1.11,1.925-2.153,2.883-3.234a1.933,1.933,0,0,0-.209-2.608,14.263,14.263,0,0,0-3.272-2.048c-6.069-2.836-14.177-2.589-19.706,2.854a16.763,16.763,0,0,0,3.035,25.577Z" transform="translate(-870.635 -137.445)"/><path class="b" d="M384.619,157.293c.095,5.861-.057,10.8.085,15.752.019.844.275,1.1,1.119,1.091,4.732-.038,9.455-.019,14.187-.009,1.783,0,3.566-.028,5.339.009.73.019.91-.247.958-.948.1-1.593.095-3.186.1-4.78.009-1.28,0-1.29-1.242-1.29H392.177c-1.223,0-1.223,0-1.223-1.233q0-11.2.009-22.381c0-1.2,0-1.2-1.233-1.214-1.347,0-2.7.047-4.049-.019-.863-.038-1.081.285-1.081,1.11C384.638,148.331,384.619,153.272,384.619,157.293Z" transform="translate(-357.193 -141.811)"/><path class="b" d="M95.625,157.759h.019v13.447c0,.673.085,1.347.076,2.02-.009.654.228.929.92.91,1.536-.047,3.073-.038,4.6-.009.616.009.835-.18.891-.825.171-1.868.076-3.736.1-5.6.019-1.489-.247-1.432,1.423-1.46a40.077,40.077,0,0,0,7.975-.417c4.7-1.024,7.454-3.755,8.279-8.269a28.57,28.57,0,0,0,.322-4.125c.2-6.325-3.518-10.527-9.863-10.991-4.561-.332-9.142-.038-13.713-.152-.882-.019-1.072.294-1.062,1.11C95.635,148.181,95.625,152.97,95.625,157.759Zm7.321-8.725c1.9.038,3.812-.057,5.7.095a5.06,5.06,0,0,1,4.7,3.4,4.866,4.866,0,0,1-2.836,5.965,8,8,0,0,1-3.215.692c-1.413.019-2.826-.009-4.23.038-.654.019-.854-.209-.844-.844.038-1.413.009-2.817.009-4.23h-.009c0-1.441.009-2.883-.009-4.324C102.226,149.319,102.368,149.025,102.946,149.034Z" transform="translate(-95.596 -141.812)"/><path class="b" d="M633.606,147.889h.1c0,1.593.01,3.186-.009,4.789-.01.578.218.825.816.816,1.47-.019,2.949-.019,4.419.009.635.009.825-.256.882-.863.294-3.158.057-6.316.152-9.474.019-.56-.228-.759-.768-.759-1.593.009-3.2.019-4.789-.009-.673-.009-.825.284-.816.891C633.624,144.826,633.606,146.352,633.606,147.889Z" transform="translate(-582.575 -141.928)"/><path class="b" d="M638.853,303.42c3.746,2.371,7.871,2.646,12.072,1.726a11.218,11.218,0,0,0,9.142-8.9c.645-2.741.446-5.557.493-8.345.01-.721-.5-.635-.958-.635H634.472c-.5,0-1-.057-.977.711.057,2.238-.038,4.476.228,6.714A11.233,11.233,0,0,0,638.853,303.42Z" transform="translate(-582.484 -273.059)"/><path class="b" d="M851.839,152.676c.047.74.323.939,1.005.92,1.413-.038,2.826-.028,4.239,0,.616.009.9-.18.882-.835-.029-1.565-.01-3.13-.01-4.694h.1c0-1.593-.019-3.2.009-4.789.01-.55-.19-.778-.749-.778-1.631.009-3.253.009-4.884,0-.56,0-.749.247-.74.787C851.792,146.407,851.621,149.546,851.839,152.676Z" transform="translate(-779.993 -142.021)"/></g></g></g></svg>